<?xml version="1.0" encoding="UTF-8" standalone="no"?>
<svg
   xmlns:dc="http://purl.org/dc/elements/1.1/"
   xmlns:cc="http://creativecommons.org/ns#"
   xmlns:rdf="http://www.w3.org/1999/02/22-rdf-syntax-ns#"
   xmlns:svg="http://www.w3.org/2000/svg"
   xmlns="http://www.w3.org/2000/svg"
   width="16"
   height="16"
   fill="currentColor"
   class="bi bi-cup-fill"
   viewBox="0 0 16 16"
   version="1.1"
   id="svg4">
  <metadata
     id="metadata10">
    <rdf:RDF>
      <cc:Work
         rdf:about="">
        <dc:format>image/svg+xml</dc:format>
        <dc:type
           rdf:resource="http://purl.org/dc/dcmitype/StillImage" />
        <dc:title></dc:title>
      </cc:Work>
    </rdf:RDF>
  </metadata>
  <defs
     id="defs8" />
  <rect
     style="fill:#ffffff"
     id="rect70"
     width="17.376133"
     height="16.399025"
     x="0"
     y="0" />
  <path
     d="M1 2a1 1 0 0 1 1-1h11a1 1 0 0 1 1 1v1h.5A1.5 1.5 0 0 1 16 4.5v7a1.5 1.5 0 0 1-1.5 1.5h-.55a2.5 2.5 0 0 1-2.45 2h-8A2.5 2.5 0 0 1 1 12.5V2zm13 10h.5a.5.5 0 0 0 .5-.5v-7a.5.5 0 0 0-.5-.5H14v8z"
     id="path2" />
</svg>
