<?xml version="1.0" encoding="UTF-8" standalone="no"?>
<svg
   xmlns:dc="http://purl.org/dc/elements/1.1/"
   xmlns:cc="http://creativecommons.org/ns#"
   xmlns:rdf="http://www.w3.org/1999/02/22-rdf-syntax-ns#"
   xmlns:svg="http://www.w3.org/2000/svg"
   xmlns="http://www.w3.org/2000/svg"
   width="16"
   height="16"
   fill="currentColor"
   class="bi bi-cup"
   viewBox="0 0 16 16"
   version="1.1"
   id="svg14">
  <metadata
     id="metadata20">
    <rdf:RDF>
      <cc:Work
         rdf:about="">
        <dc:format>image/svg+xml</dc:format>
        <dc:type
           rdf:resource="http://purl.org/dc/dcmitype/StillImage" />
        <dc:title></dc:title>
      </cc:Work>
    </rdf:RDF>
  </metadata>
  <defs
     id="defs18" />
  <rect
     style="fill:#ffffff"
     id="rect28"
     width="17.471025"
     height="16.951857"
     x="0"
     y="0" />
  <path
     d="M1 2a1 1 0 0 1 1-1h11a1 1 0 0 1 1 1v1h.5A1.5 1.5 0 0 1 16 4.5v7a1.5 1.5 0 0 1-1.5 1.5h-.55a2.5 2.5 0 0 1-2.45 2h-8A2.5 2.5 0 0 1 1 12.5V2zm13 10h.5a.5.5 0 0 0 .5-.5v-7a.5.5 0 0 0-.5-.5H14v8zM13 2H2v10.5A1.5 1.5 0 0 0 3.5 14h8a1.5 1.5 0 0 0 1.5-1.5V2z"
     id="path12" />
  <path
     style="fill:#ffffff;stroke-width:0.0179978"
     d="M 3.2395951,13.966196 C 2.9319461,13.908062 2.6849254,13.778564 2.459811,13.557403 2.224089,13.32582 2.0767065,13.040106 2.0254782,12.715411 2.0131764,12.637439 2.0069757,10.832316 2.0068851,7.3025872 L 2.0067492,2.0067492 H 7.496063 12.985377 V 7.334842 c 0,4.766848 -0.003,5.342706 -0.02821,5.466817 -0.0984,0.483925 -0.452086,0.899334 -0.927229,1.089055 -0.269274,0.107519 -0.05146,0.102688 -4.5497318,0.100913 -3.3315474,-0.0013 -4.1386048,-0.0062 -4.2406121,-0.02543 z"
     id="path22" />
  <path
     style="fill:#ffffff;stroke-width:0.0179978"
     d="M 14.011249,8.0002977 V 4.0014654 l 0.301462,0.00614 c 0.260897,0.00531 0.31236,0.011244 0.382452,0.044071 0.09562,0.044781 0.200564,0.146243 0.246275,0.2380933 0.03126,0.062821 0.03269,0.2246428 0.03269,3.7102301 0,3.4855872 -0.0014,3.6474092 -0.03269,3.7102302 -0.04585,0.09213 -0.150878,0.193489 -0.246275,0.237676 -0.06942,0.03215 -0.124067,0.03849 -0.382452,0.04437 l -0.301462,0.0069 z"
     id="path24" />
</svg>
